<?xml version="1.0" encoding="UTF-8" standalone="no"?>
<svg
   version="1.1"
   width="3129.3103"
   height="800"
   viewBox="0 0 3129.3103 800.00001"
   id="svg4"
   sodipodi:docname="LOGO half (transparent background).svg"
   inkscape:version="1.4.2 (ebf0e940, 2025-05-08)"
   inkscape:export-filename="LOGO half (transparent background).png"
   inkscape:export-xdpi="300"
   inkscape:export-ydpi="300"
   xmlns:inkscape="http://www.inkscape.org/namespaces/inkscape"
   xmlns:sodipodi="http://sodipodi.sourceforge.net/DTD/sodipodi-0.dtd"
   xmlns="http://www.w3.org/2000/svg"
   xmlns:svg="http://www.w3.org/2000/svg">
  <defs
     id="defs4" />
  <sodipodi:namedview
     id="namedview4"
     pagecolor="#ffffff"
     bordercolor="#000000"
     borderopacity="0.25"
     inkscape:showpageshadow="2"
     inkscape:pageopacity="0.0"
     inkscape:pagecheckerboard="0"
     inkscape:deskcolor="#d1d1d1"
     inkscape:zoom="0.17126287"
     inkscape:cx="1386.7571"
     inkscape:cy="910.88045"
     inkscape:window-width="1664"
     inkscape:window-height="1055"
     inkscape:window-x="0"
     inkscape:window-y="34"
     inkscape:window-maximized="0"
     inkscape:current-layer="g4"
     inkscape:export-bgcolor="#ffffff00" />
  <g
     transform="matrix(6.4655172,0,0,6.4655172,64.655172,64.655172)"
     id="g4">
    <defs
       id="SvgjsDefs1051" />
    <g
       id="SvgjsG1052"
       featureKey="rootContainer"
       fill="#ffffff" />
    <g
       id="SvgjsG1054"
       featureKey="nameLeftFeature-0"
       transform="matrix(2.3927219,0,0,2.3927219,15.166702,21.431244)"
       fill="#000000">
      <path
         d="M 6.66,14.3 H 3.56 V 20 H 2.02 V 5.42 H 6.9 c 3.56,-0.02 5.12,2.12 5.12,4.38 0,1.26 -0.48,2.36 -1.34,3.18 C 9.8,13.8 8.38,14.3 6.66,14.3 Z M 6.78,6.86 H 3.56 v 6.02 H 6.7 c 1.3,0 2.32,-0.38 2.9,-0.98 0.58,-0.58 0.86,-1.3 0.86,-2.06 0,-1.42 -0.82,-2.98 -3.68,-2.98 z M 24.54,20 v -6.68 h -8.3 V 20 H 14.7 V 5.42 h 1.54 v 6.46 h 8.3 V 5.42 h 1.54 V 20 Z m 19.22,-7.32 c 0,1.38 -0.32,2.64 -0.94,3.78 -0.64,1.14 -1.52,2.04 -2.64,2.7 -1.14,0.66 -2.38,1 -3.78,1 -1.02,0 -1.98,-0.2 -2.9,-0.58 C 32.6,19.2 31.82,18.68 31.18,18 30.54,17.36 30.04,16.58 29.66,15.66 29.3,14.74 29.1,13.78 29.1,12.76 c 0,-1.38 0.32,-2.64 0.96,-3.78 0.62,-1.14 1.5,-2.06 2.64,-2.72 1.12,-0.66 2.38,-0.98 3.76,-0.98 1.02,0 1.98,0.18 2.9,0.56 0.9,0.4 1.68,0.92 2.32,1.56 0.64,0.68 1.16,1.46 1.52,2.36 0.38,0.92 0.56,1.88 0.56,2.92 z m -1.58,0.08 c 0,-1.64 -0.6,-3.16 -1.6,-4.26 -1,-1.1 -2.5,-1.8 -4.18,-1.8 -1.08,0 -2.06,0.28 -2.94,0.8 -0.88,0.56 -1.56,1.28 -2.04,2.18 -0.48,0.92 -0.72,1.92 -0.72,3 0,1.62 0.6,3.16 1.6,4.24 1,1.1 2.5,1.8 4.16,1.8 1.08,0 2.06,-0.28 2.94,-0.82 0.9,-0.52 1.58,-1.26 2.06,-2.16 0.48,-0.9 0.72,-1.9 0.72,-2.98 z M 46.78,20 V 5.42 h 9.12 v 1.42 h -7.58 v 5.04 h 6.94 v 1.42 h -6.94 v 5.28 h 7.66 V 20 Z M 69.52,5.42 h 1.5 V 20 H 69.36 L 60.66,7.6 V 20 H 59.14 V 5.42 h 1.78 l 8.6,12.26 z M 75.08,20 V 5.42 h 1.54 V 20 Z m 14.94,0 -4.74,-6.38 -4.7,6.38 h -1.8 l 5.6,-7.46 -5.34,-7.12 h 1.78 l 4.5,6 4.46,-6 h 1.78 l -5.34,7.1 5.58,7.48 z"
         id="path2" />
    </g>
    <g
       id="SvgjsG1055"
       featureKey="inlineSymbolFeature-0"
       transform="matrix(3.7218829,0,0,3.7218829,254.9999,19.822991)"
       fill="#000000">
      <defs
         id="defs2" />
      <g
         id="g3">
        <path
           class="fil0"
           d="m 18.6172,7.71354 c -2.62371,1.66491 -3.01252,0.119901 -3.82132,3.33302 0.147701,-0.250001 0.335902,-0.124601 0.557103,-0.314202 -0.084,0.146201 -0.257801,0.398502 -0.0684,1.23241 0,-0.477503 0.212401,-0.827104 0.387502,-0.883805 0.456602,0.233301 0.124601,1.25271 -0.253001,1.35971 -0.789404,0.223701 -2.04861,-1.53521 -1.17701,-2.52071 -0.396902,-0.0736 -1.65901,0.104901 -2.07271,-0.489403 C 9.2300436,7.16675 5.2690236,8.32245 3.1861136,5.59184 c 1.68691,3.94622 4.90113,3.10032 7.1354404,4.40972 -1.4813104,0.362202 -2.8247204,0.0317 -3.2842204,-0.697104 0.546403,1.63921 2.69641,1.98061 4.1662204,2.19221 -0.644603,0.314802 -1.9216104,0.123601 -2.5367104,-0.134301 1.29901,1.37691 2.4955104,1.56651 4.3677204,1.29351 -0.520203,0.549103 -1.27781,0.651604 -1.99901,0.621503 0.921105,0.336002 1.33461,0.604103 2.33501,0.504003 -1.62931,2.72291 -5.0488304,2.54121 -6.8707404,0.772804 0.0575,0.216501 0.951205,1.28481 2.15021,1.61271 -4.14512,-0.469303 -5.61083,-2.43801 -5.61083,-6.45083 -0.421702,1.47571 -0.632603,2.00091 -0.319202,3.51102 -2.37721,-2.37721 -1.20001,-7.26764 0.730504,-8.63475 -1.00681,0.207301 -1.35791,0.723404 -1.99911,1.44471 0.543703,-2.71811 3.49732,-5.06493 6.19883,-4.36772 -0.662104,-0.585703 -1.20301,-0.520803 -2.06621,-0.520803 1.15941,-0.579703 4.6309204,-1.56131 5.4889304,-0.0225 -0.111801,-0.410602 -0.565203,-0.646603 -0.475203,-0.628303 0.972505,0.197901 1.94501,0.556703 2.93212,1.02041 -6.0823304,-4.02542 -14.1047004,0.442802 -13.4973004,7.67424 0.832504,9.90965 16.0245004,10.8829 16.6345004,1.58091 0.817804,-1.20731 0.782404,-2.19341 1.95011,-3.05972 z"
           style="fill:#ff3d00;fill-opacity:1"
           id="path3" />
      </g>
    </g>
    <g
       id="SvgjsG1056"
       featureKey="nameRightFeature-0"
       transform="matrix(2.4554276,0,0,2.4554276,336.38817,20.559965)"
       fill="#000000">
      <path
         d="m 6,8.04 v 5 h 1.42 c 0.18666,0 0.28,-0.1 0.28,-0.3 v -4.4 c 0,-0.2 -0.09334,-0.3 -0.28,-0.3 z m 4.56,6.06 c 0,0.32 -0.11,0.61334 -0.33,0.88 -0.22,0.26666 -0.54334,0.4 -0.97,0.4 L 10.78,20 h -3 L 6.38,15.38 H 6 V 20 H 3.1 V 5.5 h 5.5 c 0.68,0 1.1767,0.17 1.49,0.51 0.3133,0.34 0.47,0.79666 0.47,1.37 z M 11.8,5.5 h 5.64 l 0.5,2.7 h -3.16 v 3.44 h 2.4 v 2.5 h -2.4 v 3.16 h 3.04 L 17.32,20 H 11.8 Z M 26.44,20 H 23.48 V 14.2 H 21.9 V 20 H 18.94 V 5.5 h 2.96 v 6.2 h 1.58 V 5.5 h 2.96 z M 30.42,18.2 30.16,20 H 27.24 L 29.86,5.5 h 3.1 L 35.58,20 H 32.66 L 32.4,18.2 Z m 0.32,-2.3 h 1.34 l -0.66,-5.14 z m 8.52,-7.86 2e-5,3.8 h 1.36 c 0.10666,0 0.19332,-0.03 0.25998,-0.09 0.06666,-0.06 0.1,-0.15666 0.1,-0.29 V 8.32 c 0,-0.18666 -0.08666,-0.28 -0.26,-0.28 z m 1.76,6.42 c 0,-0.16 -0.04,-0.27002 -0.12,-0.33002 -0.08,-0.06 -0.18666,-0.09 -0.32,-0.09 h -1.32 v 3.42 h 1.46 c 0.12,0 0.2,-0.02334 0.24,-0.07 C 41,17.34332 41.02,17.26666 41.02,17.16 Z m 2.74,-3.22 c 0,0.36 -0.07,0.67 -0.21,0.93 -0.14,0.26 -0.40334,0.44334 -0.79,0.55 0.4,0.02666 0.69,0.16666 0.87,0.42 0.18,0.25334 0.27,0.54 0.27,0.86 v 3.76 c 0,0.8 -0.16666,1.3733 -0.5,1.72 C 43.06666,19.8267 42.48,20 41.64,20 H 36.38 V 5.5 h 5.66 c 0.57334,0 1.0033,0.16 1.29,0.48 0.2867,0.32 0.43,0.74666 0.43,1.28 z"
         id="path4" />
    </g>
  </g>
</svg>
