<?xml version="1.0" encoding="UTF-8" standalone="no"?>
<svg
   version="1.1"
   width="3129.310344827586"
   height="982.7586206896551"
   viewBox="0 0 3129.310344827586 982.7586206896551"
   id="svg4"
   sodipodi:docname="LOGO (transparent background).svg"
   inkscape:version="1.4.2 (ebf0e940, 2025-05-08)"
   inkscape:export-filename="LOGO (transparent background).png"
   inkscape:export-xdpi="300"
   inkscape:export-ydpi="300"
   xmlns:inkscape="http://www.inkscape.org/namespaces/inkscape"
   xmlns:sodipodi="http://sodipodi.sourceforge.net/DTD/sodipodi-0.dtd"
   xmlns="http://www.w3.org/2000/svg"
   xmlns:svg="http://www.w3.org/2000/svg">
  <defs
     id="defs4" />
  <sodipodi:namedview
     id="namedview4"
     pagecolor="#ffffff"
     bordercolor="#000000"
     borderopacity="0.25"
     inkscape:showpageshadow="2"
     inkscape:pageopacity="0.0"
     inkscape:pagecheckerboard="0"
     inkscape:deskcolor="#d1d1d1"
     inkscape:zoom="0.17126287"
     inkscape:cx="1337.1258"
     inkscape:cy="910.88045"
     inkscape:window-width="1672"
     inkscape:window-height="1055"
     inkscape:window-x="0"
     inkscape:window-y="34"
     inkscape:window-maximized="0"
     inkscape:current-layer="SvgjsG1052"
     inkscape:export-bgcolor="#ffffff00" />
  <g
     transform="scale(6.4655172413793105) translate(10, 10)"
     id="g4">
    <defs
       id="SvgjsDefs1051" />
    <g
       id="SvgjsG1052"
       featureKey="rootContainer"
       transform="matrix(1,0,0,1,0,0)"
       fill="#fff" />
    <g
       id="SvgjsG1053"
       featureKey="mlRtrp-0"
       transform="matrix(1.2645507758650172,0,0,1.2645507758650172,78.1884126106379,86.46011648129267)"
       fill="#000000">
      <path
         d="M2.8209 11.9118 l2.1524 0 l0 -3.8369 l-2.7005 0 l0.54813 0.41444 l0 3.4225 z M6.8048 7.2989999999999995 l0 5.4011 c0 0.74866 -0.57487 1.3235 -1.3235 1.3235 l-0.25401 0 l1.5775 5.9492 l-1.8984 0 l-1.5775 -5.9492 l-1.0561 0 l0.54813 0.41444 l0 5.5348 l-1.8449 0 l0 -11.898 l0 -1.6979 l-0.33422 -0.41444 l4.8396 0.013369 c0.74866 0 1.3235 0.57487 1.3235 1.3235 z M13.114971336898396 6.43 l-0.33422 -0.41444 l5.254 0 l0 2.1123 l-3.623 0 l0.54813 0.41444 l0 3.4091 l2.1658 0 l0 2.1257 l-2.7139 0 l0.54813 0.40107 l0 3.4225 l3.0749 0 l0 2.1123 l-4.9198 0 l0 -2.1123 l0 -3.8235 l0 -2.1257 l0 -5.5214 z M25.66848395721925 14.090900000000001 l0.54813 0.40107 l0 3.4225 l2.1524 0 l0 -3.8235 l-2.7005 0 z M26.21658395721925 8.556 l0 3.4091 l2.1524 0 l0 -3.8235 l-2.7005 0 z M30.21388395721925 7.353 l0 4.3449 c0 0.74866 -0.61497 1.3235 -1.3235 1.3235 c0.70856 0 1.3235 0.61497 1.3235 1.3235 l0 4.3583 c0 0.74866 -0.61497 1.3235 -1.3235 1.3235 l-4.5187 0 l0 -13.596 l-0.33422 -0.40107 l4.8529 0 c0.70856 0 1.3235 0.61497 1.3235 1.3235 z M38.40906631016043 17.9011 l2.1524 0 l0 -11.898 l1.8449 0 l0 12.674 c0 0.74866 -0.61497 1.3235 -1.3235 1.3235 l-3.1818 0.013369 c-0.74866 0 -1.3235 -0.58824 -1.3235 -1.3369 l0 -12.259 l-0.013369 0 l-0.33422 -0.41444 l2.1791 0 l0 11.898 z M50.90912834224599 19.973262 l-1.8449 0 l0 -13.583 l-0.33422 -0.41444 l2.1791 0 l0 13.997 z M57.20587994652407 6.016 l2.1791 0 l0 11.885 l3.0749 0 l0 2.1123 l-4.9198 0 l0 -0.013369 l0 -2.0989 l0 -11.484 z M70.17380320855615 17.9011 l2.1524 0 l0 -9.7727 l-2.7005 0 l0.54813 0.41444 l0 9.3583 z M74.17110320855615 7.34 l0 11.35 c0 0.74866 -0.58824 1.3235 -1.3369 1.3235 l-4.5053 0 l0 -2.1123 l0 -11.471 l-0.33422 -0.41444 l4.8396 0 c0.73529 0 1.3369 0.61497 1.3369 1.3235 z M82.47322406417113 20.040107 l-1.8316 0 l0 -2.0187 l1.8316 0 l0 2.0187 z M99.82624759358289 11.9118 l2.1524 0 l0 -3.8369 l-2.7005 0 l0.54813 0.41444 l0 3.4225 z M103.8101475935829 7.2989999999999995 l0 5.4011 c0 0.74866 -0.57487 1.3235 -1.3235 1.3235 l-0.25401 0 l1.5775 5.9492 l-1.8984 0 l-1.5775 -5.9492 l-1.0561 0 l0.54813 0.41444 l0 5.5348 l-1.8449 0 l0 -11.898 l0 -1.6979 l-0.33422 -0.41444 l4.8396 0.013369 c0.74866 0 1.3235 0.57487 1.3235 1.3235 z M110.12031893048129 6.43 l-0.33422 -0.41444 l5.254 0 l0 2.1123 l-3.623 0 l0.54813 0.41444 l0 3.4091 l2.1658 0 l0 2.1257 l-2.7139 0 l0.54813 0.40107 l0 3.4225 l3.0749 0 l0 2.1123 l-4.9198 0 l0 -2.1123 l0 -3.8235 l0 -2.1257 l0 -5.5214 z M122.39305935828878 6.003 l3.5829 0 l0 2.1123 l-3.623 0 l0.54813 0.40107 c-0.053476 2.3529 -0.053476 7.0321 0 9.3717 l3.0749 0 l0 2.1123 l-3.5829 0 c-0.74866 0 -1.3235 -0.57487 -1.3235 -1.3235 l0 -11.35 c0 -0.74866 0.57487 -1.3235 1.3235 -1.3235 z M133.7567155080214 17.9011 l2.1658 0 l0 -9.7727 l-2.7005 0 l0.53476 0.41444 l0 9.3583 z M137.75401550802138 7.34 l0 11.35 c0 0.74866 -0.57487 1.3235 -1.3235 1.3235 l-3.1818 0 c-0.74866 0 -1.3235 -0.57487 -1.3235 -1.3235 l0 -11.35 c0 -0.70856 0.57487 -1.3235 1.3235 -1.3235 l3.1818 0 c0.74866 0 1.3235 0.61497 1.3235 1.3235 z M143.58288326203208 6.016 l2.139 0 l1.2433 10.053 l1.2299 -10.053 l1.8449 0 l-1.7112 13.997 l-2.7406 0 l-1.6578 -13.583 l-0.013369 0 z M156.52406224598934 6.43 l-0.33422 -0.41444 l5.254 0 l0 2.1123 l-3.623 0 l0.54813 0.41444 l0 3.4091 l2.1658 0 l0 2.1257 l-2.7139 0 l0.54813 0.40107 l0 3.4225 l3.0749 0 l0 2.1123 l-4.9198 0 l0 -2.1123 l0 -3.8235 l0 -2.1257 l0 -5.5214 z M169.62571283422463 11.9118 l2.1524 0 l0 -3.8369 l-2.7005 0 l0.54813 0.41444 l0 3.4225 z M173.60961283422463 7.2989999999999995 l0 5.4011 c0 0.74866 -0.57487 1.3235 -1.3235 1.3235 l-0.25401 0 l1.5775 5.9492 l-1.8984 0 l-1.5775 -5.9492 l-1.0561 0 l0.54813 0.41444 l0 5.5348 l-1.8449 0 l0 -11.898 l0 -1.6979 l-0.33422 -0.41444 l4.8396 0.013369 c0.74866 0 1.3235 0.57487 1.3235 1.3235 z M181.83151283422464 20.040107 l-1.8316 0 l0 -2.0187 l1.8316 0 l0 2.0187 z M199.18453636363637 11.9118 l2.1524 0 l0 -3.8369 l-2.7005 0 l0.54813 0.41444 l0 3.4225 z M203.16843636363637 7.2989999999999995 l0 5.4011 c0 0.74866 -0.57487 1.3235 -1.3235 1.3235 l-0.25401 0 l1.5775 5.9492 l-1.8984 0 l-1.5775 -5.9492 l-1.0561 0 l0.54813 0.41444 l0 5.5348 l-1.8449 0 l0 -11.898 l0 -1.6979 l-0.33422 -0.41444 l4.8396 0.013369 c0.74866 0 1.3235 0.57487 1.3235 1.3235 z M211.32356684491978 19.973262 l-1.8449 0 l0 -13.583 l-0.33422 -0.41444 l2.1791 0 l0 13.997 z M223.40909572192515 7.34 l0 2.8877 l-1.8316 0 l0 -2.1123 l-2.7005 0 l0.53476 0.41444 l0 1.6979 l3.9973 4.9064 l0 2.1123 l0 1.4439 c0 0.70856 -0.57487 1.3235 -1.3235 1.3235 l-3.1818 0 c-0.74866 0 -1.3235 -0.61497 -1.3235 -1.3235 l0 -2.9813 l1.8316 0 l0 2.1925 l2.1658 0 l0 -2.1123 l-3.9973 -4.9064 l0 -3.5428 c0 -0.74866 0.57487 -1.3235 1.3235 -1.3235 l3.1818 0 c0.74866 0 1.3235 0.57487 1.3235 1.3235 z M229.65240449197864 6.43 l-0.33422 -0.41444 l5.254 0 l0 2.1123 l-3.623 0 l0.54813 0.41444 l0 3.4091 l2.1658 0 l0 2.1257 l-2.7139 0 l0.54813 0.40107 l0 3.4225 l3.0749 0 l0 2.1123 l-4.9198 0 l0 -2.1123 l0 -3.8235 l0 -2.1257 l0 -5.5214 z M242.55343796791448 20.040107 l-1.8316 0 l0 -2.0187 l1.8316 0 l0 2.0187 z"
         id="path1" />
    </g>
    <g
       id="SvgjsG1054"
       featureKey="nameLeftFeature-0"
       transform="matrix(2.3927219435456117,0,0,2.3927219435456117,15.166701719675412,21.3664230723112)"
       fill="#000000">
      <path
         d="M6.66 14.3 l-3.1 0 l0 5.7 l-1.54 0 l0 -14.58 l4.88 0 c3.56 -0.02 5.12 2.12 5.12 4.38 c0 1.26 -0.48 2.36 -1.34 3.18 c-0.88 0.82 -2.3 1.32 -4.02 1.32 z M6.78 6.859999999999999 l-3.22 0 l0 6.02 l3.14 0 c1.3 0 2.32 -0.38 2.9 -0.98 c0.58 -0.58 0.86 -1.3 0.86 -2.06 c0 -1.42 -0.82 -2.98 -3.68 -2.98 z M24.54 20 l0 -6.68 l-8.3 0 l0 6.68 l-1.54 0 l0 -14.58 l1.54 0 l0 6.46 l8.3 0 l0 -6.46 l1.54 0 l0 14.58 l-1.54 0 z M43.760000000000005 12.68 c0 1.38 -0.32 2.64 -0.94 3.78 c-0.64 1.14 -1.52 2.04 -2.64 2.7 c-1.14 0.66 -2.38 1 -3.78 1 c-1.02 0 -1.98 -0.2 -2.9 -0.58 c-0.9 -0.38 -1.68 -0.9 -2.32 -1.58 c-0.64 -0.64 -1.14 -1.42 -1.52 -2.34 c-0.36 -0.92 -0.56 -1.88 -0.56 -2.9 c0 -1.38 0.32 -2.64 0.96 -3.78 c0.62 -1.14 1.5 -2.06 2.64 -2.72 c1.12 -0.66 2.38 -0.98 3.76 -0.98 c1.02 0 1.98 0.18 2.9 0.56 c0.9 0.4 1.68 0.92 2.32 1.56 c0.64 0.68 1.16 1.46 1.52 2.36 c0.38 0.92 0.56 1.88 0.56 2.92 z M42.18 12.76 c0 -1.64 -0.6 -3.16 -1.6 -4.26 s-2.5 -1.8 -4.18 -1.8 c-1.08 0 -2.06 0.28 -2.94 0.8 c-0.88 0.56 -1.56 1.28 -2.04 2.18 c-0.48 0.92 -0.72 1.92 -0.72 3 c0 1.62 0.6 3.16 1.6 4.24 c1 1.1 2.5 1.8 4.16 1.8 c1.08 0 2.06 -0.28 2.94 -0.82 c0.9 -0.52 1.58 -1.26 2.06 -2.16 s0.72 -1.9 0.72 -2.98 z M46.78000000000001 20 l0 -14.58 l9.12 0 l0 1.42 l-7.58 0 l0 5.04 l6.94 0 l0 1.42 l-6.94 0 l0 5.28 l7.66 0 l0 1.42 l-9.2 0 z M69.52000000000001 5.42 l1.5 0 l0 14.58 l-1.66 0 l-8.7 -12.4 l0 12.4 l-1.52 0 l0 -14.58 l1.78 0 l8.6 12.26 l0 -12.26 z M75.08 20 l0 -14.58 l1.54 0 l0 14.58 l-1.54 0 z M90.02 20 l-4.74 -6.38 l-4.7 6.38 l-1.8 0 l5.6 -7.46 l-5.34 -7.12 l1.78 0 l4.5 6 l4.46 -6 l1.78 0 l-5.34 7.1 l5.58 7.48 l-1.78 0 z"
         id="path2" />
    </g>
    <g
       id="SvgjsG1055"
       featureKey="inlineSymbolFeature-0"
       transform="matrix(3.7218828948316482,0,0,3.7218828948316482,254.9999006150045,19.999669456153317)"
       fill="#000000">
      <defs
         id="defs2" />
      <g
         id="g3">
        <path
           class="fil0"
           d="M18.6172 7.71354c-2.62371,1.66491 -3.01252,0.119901 -3.82132,3.33302 0.147701,-0.250001 0.335902,-0.124601 0.557103,-0.314202 -0.0840005,0.146201 -0.257801,0.398502 -0.0684004,1.23241 0,-0.477503 0.212401,-0.827104 0.387502,-0.883805 0.456602,0.233301 0.124601,1.25271 -0.253001,1.35971 -0.789404,0.223701 -2.04861,-1.53521 -1.17701,-2.52071 -0.396902,-0.0736004 -1.65901,0.104901 -2.07271,-0.489403 -2.93932,-2.26381 -6.90034,-1.10811 -8.98325,-3.83872 1.68691,3.94622 4.90113,3.10032 7.13544,4.40972 -1.48131,0.362202 -2.82472,0.0317002 -3.28422,-0.697104 0.546403,1.63921 2.69641,1.98061 4.16622,2.19221 -0.644603,0.314802 -1.92161,0.123601 -2.53671,-0.134301 1.29901,1.37691 2.49551,1.56651 4.36772,1.29351 -0.520203,0.549103 -1.27781,0.651604 -1.99901,0.621503 0.921105,0.336002 1.33461,0.604103 2.33501,0.504003 -1.62931,2.72291 -5.04883,2.54121 -6.87074,0.772804 0.0575003,0.216501 0.951205,1.28481 2.15021,1.61271 -4.14512,-0.469303 -5.61083,-2.43801 -5.61083,-6.45083 -0.421702,1.47571 -0.632603,2.00091 -0.319202,3.51102 -2.37721,-2.37721 -1.20001,-7.26764 0.730504,-8.63475 -1.00681,0.207301 -1.35791,0.723404 -1.99911,1.44471 0.543703,-2.71811 3.49732,-5.06493 6.19883,-4.36772 -0.662104,-0.585703 -1.20301,-0.520803 -2.06621,-0.520803 1.15941,-0.579703 4.63092,-1.56131 5.48893,-0.0225001 -0.111801,-0.410602 -0.565203,-0.646603 -0.475203,-0.628303 0.972505,0.197901 1.94501,0.556703 2.93212,1.02041 -6.08233,-4.02542 -14.1047,0.442802 -13.4973,7.67424 0.832504,9.90965 16.0245,10.8829 16.6345,1.58091 0.817804,-1.20731 0.782404,-2.19341 1.95011,-3.05972z"
           style="fill:#ff3d00;fill-opacity:1"
           id="path3" />
      </g>
    </g>
    <g
       id="SvgjsG1056"
       featureKey="nameRightFeature-0"
       transform="matrix(2.4554276215107955,0,0,2.4554276215107955,336.3881734366452,20.495148081690623)"
       fill="#000000">
      <path
         d="M6 8.04 l0 5 l1.42 0 c0.18666 0 0.28 -0.1 0.28 -0.3 l0 -4.4 c0 -0.2 -0.09334 -0.3 -0.28 -0.3 l-1.42 0 z M10.56 14.1 c0 0.32 -0.11 0.61334 -0.33 0.88 s-0.54334 0.4 -0.97 0.4 l1.52 4.62 l-3 0 l-1.4 -4.62 l-0.38 0 l0 4.62 l-2.9 0 l0 -14.5 l5.5 0 c0.68 0 1.1767 0.17 1.49 0.51 s0.47 0.79666 0.47 1.37 l0 6.72 z M11.8 5.5 l5.64 0 l0.5 2.7 l-3.16 0 l0 3.44 l2.4 0 l0 2.5 l-2.4 0 l0 3.16 l3.04 0 l-0.5 2.7 l-5.52 0 l0 -14.5 z M26.440000000000005 20 l-2.96 0 l0 -5.8 l-1.58 0 l0 5.8 l-2.96 0 l0 -14.5 l2.96 0 l0 6.2 l1.58 0 l0 -6.2 l2.96 0 l0 14.5 z M30.420000000000005 18.2 l-0.26 1.8 l-2.92 0 l2.62 -14.5 l3.1 0 l2.62 14.5 l-2.92 0 l-0.26 -1.8 l-1.98 0 z M30.740000000000006 15.9 l1.34 0 l-0.66 -5.14 z M39.260000000000005 8.04 l0.000019531 3.8 l1.36 0 c0.10666 0 0.19332 -0.03 0.25998 -0.09 s0.1 -0.15666 0.1 -0.29 l0 -3.14 c0 -0.18666 -0.08666 -0.28 -0.26 -0.28 l-1.46 0 z M41.02000000000001 14.46 c0 -0.16 -0.04 -0.27002 -0.12 -0.33002 s-0.18666 -0.09 -0.32 -0.09 l-1.32 0 l0 3.42 l1.46 0 c0.12 0 0.2 -0.02334 0.24 -0.07 s0.06 -0.12332 0.06 -0.22998 l0 -2.7 z M43.760000000000005 11.24 c0 0.36 -0.07 0.67 -0.21 0.93 s-0.40334 0.44334 -0.79 0.55 c0.4 0.02666 0.69 0.16666 0.87 0.42 s0.27 0.54 0.27 0.86 l0 3.76 c0 0.8 -0.16666 1.3733 -0.5 1.72 s-0.92 0.52 -1.76 0.52 l-5.26 0 l0 -14.5 l5.66 0 c0.57334 0 1.0033 0.16 1.29 0.48 s0.43 0.74666 0.43 1.28 l0 3.98 z"
         id="path4" />
    </g>
  </g>
</svg>
